<!-- Nexus AI - Convert to PNG 1024x1024 for app_icon.png -->
<svg width="1024" height="1024" xmlns="http://www.w3.org/2000/svg">
  <defs>
    <linearGradient id="brandGradient" x1="0%" y1="0%" x2="100%" y2="100%">
      <stop offset="0%" style="stop-color:#6366F1;stop-opacity:1" />
      <stop offset="100%" style="stop-color:#8B5CF6;stop-opacity:1" />
    </linearGradient>
  </defs>
  <rect width="1024" height="1024" rx="230" fill="url(#brandGradient)"/>
  <path d="M 512 262 L 729 387 L 729 637 L 512 762 L 295 637 L 295 387 Z" fill="none" stroke="white" stroke-width="20"/>
  <circle cx="512" cy="512" r="40" fill="white"/>
  <circle cx="512" cy="262" r="35" fill="white"/>
  <circle cx="729" cy="387" r="35" fill="white"/>
  <circle cx="729" cy="637" r="35" fill="white"/>
  <circle cx="512" cy="762" r="35" fill="white"/>
  <circle cx="295" cy="637" r="35" fill="white"/>
  <circle cx="295" cy="387" r="35" fill="white"/>
  <line x1="512" y1="262" x2="512" y2="512" stroke="white" stroke-width="8"/>
  <line x1="729" y1="387" x2="512" y2="512" stroke="white" stroke-width="8"/>
  <line x1="729" y1="637" x2="512" y2="512" stroke="white" stroke-width="8"/>
  <line x1="512" y1="762" x2="512" y2="512" stroke="white" stroke-width="8"/>
  <line x1="295" y1="637" x2="512" y2="512" stroke="white" stroke-width="8"/>
  <line x1="295" y1="387" x2="512" y2="512" stroke="white" stroke-width="8"/>
</svg>
